<svg width="450" height="450" viewBox="0 0 450 450" fill="none" xmlns="http://www.w3.org/2000/svg">
<g clip-path="url(#clip0_285_29)">
<path d="M450 225C450 450 450 450 225 450C1.52588e-05 450 -0.000243634 450 5.06994e-07 225C0.000244648 0 0.000671387 -0.00145997 225 6.69489e-06C449.999 0.00147336 450 0 450 225Z" fill="#322E2B"/>
<mask id="mask0_285_29" style="mask-type:alpha" maskUnits="userSpaceOnUse" x="0" y="0" width="450" height="450">
<path d="M450 225C450 450 450 450 225 450C1.52588e-05 450 -0.000243634 450 5.06994e-07 225C0.000244648 0 0.000671387 -0.00145997 225 6.69489e-06C449.999 0.00147336 450 0 450 225Z" fill="#322E2B"/>
</mask>
<g mask="url(#mask0_285_29)">
<rect x="-63" y="-65" width="288" height="288" fill="#3D3936"/>
<rect x="225" y="223" width="288" height="288" fill="#3D3936"/>
</g>
<g filter="url(#filter0_d_285_29)">
<path d="M225 42C159.5 41.9998 150 122.5 191.5 149.5L148 176C148 182.333 149.4 196.2 155 201L191.5 202C191.5 316.5 105 277 103 386C119.61 407.984 192.452 408.87 225.259 408.526C258.066 408.87 330.908 407.984 347.518 386C345.518 277 259.019 316.5 259.019 202L295.518 201C301.118 196.2 302.518 182.333 302.518 176L259 149.5C300.5 122.5 291.5 43.5 225 42Z" fill="#6CB953"/>
<mask id="mask1_285_29" style="mask-type:alpha" maskUnits="userSpaceOnUse" x="103" y="42" width="245" height="367">
<path d="M225 42C159.5 41.9998 150 122.5 191.5 149.5L148 176C148 182.333 149.4 196.2 155 201L191.5 202C191.5 316.5 105 277 103 386C119.61 407.984 192.452 408.87 225.259 408.526C258.066 408.87 330.908 407.984 347.518 386C345.518 277 259.019 316.5 259.019 202L295.518 201C301.118 196.2 302.518 182.333 302.518 176L259 149.5C300.5 122.5 291.5 43.5 225 42Z" fill="#6CB953"/>
</mask>
<g mask="url(#mask1_285_29)">
<path d="M237 257C249 216 203.5 216 182.5 211.5L57.5 320.5C57.5 320.5 59.5 348 149.5 358.5C239.5 369 221.634 309.5 237 257Z" fill="#9CDF5C"/>
<path d="M230.5 149C306.5 107.4 258.5 27 206 33.0001C148.4 27.8002 136.667 142.833 138 201H248.5C252.1 189.8 253 186.5 253 175.5L230.5 149Z" fill="#9CDF5C"/>
</g>
<path d="M226.497 75.1763C215.497 89.1763 200.491 96.1763 189.997 96.1763C179.504 96.1763 182.998 83.6763 186.497 75.1763C189.997 66.6763 202.497 51.1763 218.497 53.1763C234.498 55.1763 237.497 61.1763 226.497 75.1763Z" fill="#C0FB87" fill-opacity="0.5"/>
</g>
</g>
<defs>
<filter id="filter0_d_285_29" x="103" y="42" width="249.518" height="378.575" filterUnits="userSpaceOnUse" color-interpolation-filters="sRGB">
<feFlood flood-opacity="0" result="BackgroundImageFix"/>
<feColorMatrix in="SourceAlpha" type="matrix" values="0 0 0 0 0 0 0 0 0 0 0 0 0 0 0 0 0 0 127 0" result="hardAlpha"/>
<feOffset dx="5" dy="12"/>
<feComposite in2="hardAlpha" operator="out"/>
<feColorMatrix type="matrix" values="0 0 0 0 0 0 0 0 0 0 0 0 0 0 0 0 0 0 0.25 0"/>
<feBlend mode="normal" in2="BackgroundImageFix" result="effect1_dropShadow_285_29"/>
<feBlend mode="normal" in="SourceGraphic" in2="effect1_dropShadow_285_29" result="shape"/>
</filter>
<clipPath id="clip0_285_29">
<rect width="450" height="450" fill="white"/>
</clipPath>
</defs>
</svg>
