<svg width="512" height="512" viewBox="0 0 512 512" fill="none" xmlns="http://www.w3.org/2000/svg">
<path d="M255.809 47C181.285 46.9998 170.475 138.591 217.693 169.311L168.2 199.462C168.2 206.668 169.793 222.445 176.164 227.907L217.693 229.044C217.693 359.32 119.276 314.378 117 438.396C135.899 463.409 218.777 464.417 256.104 464.025C293.43 464.417 376.309 463.409 395.208 438.396C392.932 314.378 294.515 359.32 294.515 229.044L336.043 227.907C342.415 222.445 344.008 206.668 344.008 199.462L294.493 169.311C341.711 138.591 331.471 48.7067 255.809 47Z" fill="white"/>
</svg>
